<svg width="60" height="60" viewBox="0 0 60 60" fill="none" xmlns="http://www.w3.org/2000/svg">
<path fill-rule="evenodd" clip-rule="evenodd" d="M30.2291 0C13.789 0 0.457764 13.7708 0.457764 30.7593C0.457764 44.3497 8.98816 55.8798 20.8172 59.9471C22.3051 60.2319 22.8514 59.2799 22.8514 58.4674C22.8514 57.7339 22.8237 55.3109 22.8109 52.7406C14.5285 54.6013 12.7808 49.1113 12.7808 49.1113C11.4265 45.5559 9.47525 44.6105 9.47525 44.6105C6.77409 42.7014 9.67886 42.7406 9.67886 42.7406C12.6684 42.9571 14.2426 45.9104 14.2426 45.9104C16.8979 50.6129 21.2072 49.2534 22.9061 48.4675C23.1733 46.4799 23.9448 45.1219 24.7962 44.3543C18.1836 43.5765 11.2323 40.939 11.2323 29.1527C11.2323 25.7944 12.3953 23.0505 14.2998 20.8964C13.9906 20.1211 12.9716 16.9931 14.5882 12.7561C14.5882 12.7561 17.0882 11.9294 22.7774 15.9091C25.1522 15.2276 27.699 14.8858 30.2291 14.8741C32.7592 14.8858 35.308 15.2276 37.6872 15.9091C43.3696 11.9294 45.8661 12.7561 45.8661 12.7561C47.4866 16.9931 46.4671 20.1211 46.158 20.8964C48.0669 23.0505 49.222 25.7944 49.222 29.1527C49.222 40.967 42.2574 43.5684 35.628 44.3299C36.6958 45.2844 37.6473 47.1564 37.6473 50.0261C37.6473 54.1413 37.6128 57.4538 37.6128 58.4674C37.6128 59.286 38.1487 60.2451 39.6578 59.9431C51.4804 55.8712 60 44.3452 60 30.7593C60 13.7708 46.6707 0 30.2291 0Z" fill="white"/>
<path fill-rule="evenodd" clip-rule="evenodd" d="M0.797316 46.2183C0.731747 46.3716 0.49905 46.4169 0.28706 46.312C0.0711251 46.2116 -0.0501532 46.0033 0.019853 45.85C0.0839432 45.6926 0.317133 45.6493 0.532574 45.7537C0.749002 45.8546 0.872252 46.0649 0.797316 46.2183Z" fill="white"/>
<path fill-rule="evenodd" clip-rule="evenodd" d="M2.00319 47.6078C1.86121 47.7438 1.58365 47.6806 1.39532 47.4657C1.20059 47.2512 1.1641 46.9645 1.30806 46.8264C1.45448 46.6904 1.72366 46.7541 1.91889 46.9685C2.11362 47.1855 2.15158 47.4703 2.00319 47.6078Z" fill="white"/>
<path fill-rule="evenodd" clip-rule="evenodd" d="M3.17687 49.3793C2.99446 49.5102 2.69619 49.3875 2.51181 49.1139C2.3294 48.8404 2.3294 48.5124 2.51575 48.381C2.70063 48.2495 2.99446 48.3677 3.1813 48.6392C3.36322 48.9168 3.36322 49.2454 3.17687 49.3793Z" fill="white"/>
<path fill-rule="evenodd" clip-rule="evenodd" d="M4.78512 51.0904C4.62194 51.2763 4.27437 51.2264 4.01998 50.9727C3.75968 50.7247 3.68721 50.3727 3.85088 50.1868C4.01604 50.0004 4.36558 50.0528 4.62194 50.3045C4.88027 50.552 4.95915 50.9065 4.78512 51.0904Z" fill="white"/>
<path fill-rule="evenodd" clip-rule="evenodd" d="M7.00363 52.0844C6.93165 52.3254 6.59691 52.4349 6.25969 52.3325C5.92297 52.2271 5.7026 51.9449 5.77064 51.7014C5.84064 51.4589 6.17687 51.3448 6.51655 51.4543C6.85277 51.5593 7.07364 51.8394 7.00363 52.0844Z" fill="white"/>
<path fill-rule="evenodd" clip-rule="evenodd" d="M9.44023 52.2688C9.44861 52.5224 9.16267 52.7328 8.80869 52.7369C8.45275 52.7455 8.16483 52.5403 8.16089 52.2907C8.16089 52.0345 8.44042 51.8261 8.79637 51.82C9.15034 51.8129 9.44023 52.0166 9.44023 52.2688Z" fill="white"/>
<path fill-rule="evenodd" clip-rule="evenodd" d="M11.7073 51.8698C11.7497 52.1173 11.5037 52.3715 11.1522 52.4387C10.8066 52.5044 10.4866 52.3516 10.4428 52.1061C10.3999 51.8525 10.6503 51.5983 10.9954 51.5326C11.3474 51.4694 11.6625 51.6181 11.7073 51.8698Z" fill="white"/>
</svg>
