<svg width="60" height="61" viewBox="0 0 60 61" fill="none" xmlns="http://www.w3.org/2000/svg">
<path fill-rule="evenodd" clip-rule="evenodd" d="M30 0.00585938C13.4315 0.00585938 0 13.4373 0 30.0059C0 46.5744 13.4315 60.0059 30 60.0059C46.5685 60.0059 60 46.5744 60 30.0059C60 13.4373 46.5685 0.00585938 30 0.00585938ZM23.4041 14.1025C25.1108 14.0249 25.6561 14.0059 30.0015 14.0059H29.9965C34.3432 14.0059 34.8866 14.0249 36.5932 14.1025C38.2966 14.1805 39.4599 14.4502 40.4799 14.8459C41.5333 15.2542 42.4233 15.8009 43.3133 16.6909C44.2033 17.5802 44.75 18.4729 45.16 19.5252C45.5533 20.5426 45.8233 21.7053 45.9033 23.4086C45.98 25.1153 46 25.6606 46 30.006C46 34.3514 45.98 34.8954 45.9033 36.6021C45.8233 38.3048 45.5533 39.4678 45.16 40.4855C44.75 41.5375 44.2033 42.4302 43.3133 43.3195C42.4243 44.2095 41.533 44.7575 40.4809 45.1662C39.4629 45.5619 38.2989 45.8315 36.5956 45.9095C34.8889 45.9872 34.3452 46.0062 29.9995 46.0062C25.6545 46.0062 25.1094 45.9872 23.4028 45.9095C21.6997 45.8315 20.5367 45.5619 19.5187 45.1662C18.467 44.7575 17.5744 44.2095 16.6854 43.3195C15.7957 42.4302 15.249 41.5375 14.84 40.4851C14.4447 39.4678 14.175 38.3051 14.0967 36.6018C14.0193 34.8951 14 34.3514 14 30.006C14 25.6606 14.02 25.115 14.0963 23.4083C14.173 21.7056 14.443 20.5426 14.8397 19.5249C15.2497 18.4729 15.7964 17.5802 16.6864 16.6909C17.5757 15.8012 18.4684 15.2545 19.5207 14.8459C20.5381 14.4502 21.7007 14.1805 23.4041 14.1025Z" fill="white"/>
<path fill-rule="evenodd" clip-rule="evenodd" d="M28.5661 16.8893C28.8448 16.8888 29.1446 16.889 29.4682 16.8891L30.0014 16.8893C34.2735 16.8893 34.7798 16.9046 36.4668 16.9813C38.0269 17.0526 38.8735 17.3133 39.4375 17.5323C40.1842 17.8223 40.7166 18.1689 41.2762 18.7289C41.8362 19.2889 42.1829 19.8223 42.4736 20.569C42.6926 21.1323 42.9536 21.979 43.0246 23.539C43.1012 25.2257 43.1179 25.7323 43.1179 30.0024C43.1179 34.2724 43.1012 34.7791 43.0246 36.4658C42.9532 38.0258 42.6926 38.8725 42.4736 39.4358C42.1836 40.1825 41.8362 40.7142 41.2762 41.2738C40.7162 41.8338 40.1846 42.1805 39.4375 42.4705C38.8742 42.6905 38.0269 42.9505 36.4668 43.0219C34.7802 43.0985 34.2735 43.1152 30.0014 43.1152C25.7291 43.1152 25.2227 43.0985 23.536 43.0219C21.976 42.9499 21.1294 42.6892 20.565 42.4702C19.8183 42.1802 19.285 41.8335 18.725 41.2735C18.165 40.7135 17.8183 40.1815 17.5277 39.4345C17.3086 38.8711 17.0476 38.0245 16.9766 36.4645C16.9 34.7778 16.8846 34.2711 16.8846 29.9984C16.8846 25.7257 16.9 25.2217 16.9766 23.535C17.048 21.975 17.3086 21.1283 17.5277 20.5643C17.8177 19.8176 18.165 19.2843 18.725 18.7243C19.285 18.1643 19.8183 17.8176 20.565 17.5269C21.129 17.3069 21.976 17.0469 23.536 16.9753C25.0121 16.9086 25.5841 16.8886 28.5661 16.8853V16.8893ZM38.5422 19.5459C37.4822 19.5459 36.6222 20.405 36.6222 21.4653C36.6222 22.5253 37.4822 23.3853 38.5422 23.3853C39.6022 23.3853 40.4622 22.5253 40.4622 21.4653C40.4622 20.4053 39.6022 19.5453 38.5422 19.5453V19.5459ZM21.7847 30.0061C21.7847 25.4683 25.4637 21.7893 30.0014 21.7893H30.0011C34.5388 21.7893 38.2169 25.4683 38.2169 30.0061C38.2169 34.5438 34.5392 38.2211 30.0014 38.2211C25.4637 38.2211 21.7847 34.5438 21.7847 30.0061Z" fill="white"/>
<path fill-rule="evenodd" clip-rule="evenodd" d="M30.0015 24.6729C32.9468 24.6729 35.3349 27.0605 35.3349 30.0062C35.3349 32.9516 32.9468 35.3396 30.0015 35.3396C27.0558 35.3396 24.6681 32.9516 24.6681 30.0062C24.6681 27.0605 27.0558 24.6729 30.0015 24.6729V24.6729Z" fill="white"/>
</svg>
