<svg width="924" height="703" viewBox="0 0 924 703" fill="none" xmlns="http://www.w3.org/2000/svg">
<g filter="url(#filter0_d)">
<rect x="74" y="64" width="780" height="557" fill="white"/>
<ellipse cx="87" cy="109" rx="57" ry="59" fill="white"/>
<circle cx="170" cy="82" r="50" fill="white"/>
<ellipse cx="331.5" cy="82" rx="120.5" ry="50" fill="white"/>
<ellipse cx="523.5" cy="50" rx="97.5" ry="50" fill="white"/>
<ellipse cx="689.5" cy="82" rx="97.5" ry="50" fill="white"/>
<ellipse cx="822.5" cy="100" rx="66.5" ry="50" fill="white"/>
<ellipse cx="853.5" cy="227" rx="66.5" ry="115" fill="white"/>
<ellipse cx="837.5" cy="388" rx="66.5" ry="115" fill="white"/>
<ellipse cx="813.5" cy="556.5" rx="90.5" ry="102.5" fill="white"/>
<ellipse cx="674.5" cy="542.5" rx="112.5" ry="102.5" fill="white"/>
<ellipse cx="464" cy="581.5" rx="161" ry="102.5" fill="white"/>
<ellipse cx="235" cy="556.5" rx="161" ry="102.5" fill="white"/>
<ellipse cx="119.5" cy="542.5" rx="115.5" ry="102.5" fill="white"/>
<ellipse cx="143.5" cy="400.5" rx="115.5" ry="102.5" fill="white"/>
<ellipse cx="119.5" cy="239.5" rx="115.5" ry="102.5" fill="white"/>
</g>
<defs>
<filter id="filter0_d" x="0" y="0" width="924" height="703" filterUnits="userSpaceOnUse" color-interpolation-filters="sRGB">
<feFlood flood-opacity="0" result="BackgroundImageFix"/>
<feColorMatrix in="SourceAlpha" type="matrix" values="0 0 0 0 0 0 0 0 0 0 0 0 0 0 0 0 0 0 127 0"/>
<feOffset dy="15"/>
<feGaussianBlur stdDeviation="2"/>
<feColorMatrix type="matrix" values="0 0 0 0 0 0 0 0 0 0 0 0 0 0 0 0 0 0 0.25 0"/>
<feBlend mode="normal" in2="BackgroundImageFix" result="effect1_dropShadow"/>
<feBlend mode="normal" in="SourceGraphic" in2="effect1_dropShadow" result="shape"/>
</filter>
</defs>
</svg>
