<svg width="300" height="69" viewBox="0 0 300 69" fill="none" xmlns="http://www.w3.org/2000/svg">
<g filter="url(#filter0_d)">
<path d="M106.392 43.2227C105.114 52.8029 80.7798 57.4622 52.0393 53.6295C23.2988 49.7969 1.0356 38.9237 2.31315 29.3435C3.59069 19.7633 27.9251 15.104 56.6657 18.9367C85.4062 22.7693 107.669 33.6425 106.392 43.2227Z" fill="white"/>
<path d="M290 13.3142C290 5.85746 256.5 18.0001 243 15.0001C221.5 10.2223 208 18.1314 208 25.5882C211 30.9999 217.939 44.8182 251.236 40.3176C280.558 32.5439 290 20.771 290 13.3142Z" fill="white"/>
<path d="M176.03 26.9971C176.03 38.0428 146.517 40.9971 125.53 40.9971C104.543 40.9971 71.0299 35.4971 85.5297 20.9971C95.03 11.4966 111.043 0.99707 132.03 0.99707C153.017 0.99707 176.03 15.9514 176.03 26.9971Z" fill="white"/>
<path d="M236 29.5971C236 36.2245 206.496 37.9971 185.516 37.9971C164.536 37.9971 131.033 34.6971 145.529 25.9971C155.026 20.2968 171.034 13.9971 192.014 13.9971C212.994 13.9971 236 22.9697 236 29.5971Z" fill="white"/>
<path d="M184 37.5471C184 28.4344 154.496 25.9971 133.516 25.9971C112.536 25.9971 79.0335 30.5346 93.5287 42.4971C103.026 50.3349 119.034 58.9971 140.014 58.9971C160.994 58.9971 184 46.6598 184 37.5471Z" fill="white"/>
<ellipse cx="208" cy="42.5" rx="35" ry="16.5" fill="white"/>
<ellipse cx="74" cy="20.4971" rx="25" ry="12.5" fill="white"/>
</g>
<defs>
<filter id="filter0_d" x="2.26074" y="0.99707" width="297.739" height="68.0029" filterUnits="userSpaceOnUse" color-interpolation-filters="sRGB">
<feFlood flood-opacity="0" result="BackgroundImageFix"/>
<feColorMatrix in="SourceAlpha" type="matrix" values="0 0 0 0 0 0 0 0 0 0 0 0 0 0 0 0 0 0 127 0"/>
<feOffset dx="6" dy="6"/>
<feGaussianBlur stdDeviation="2"/>
<feColorMatrix type="matrix" values="0 0 0 0 0 0 0 0 0 0 0 0 0 0 0 0 0 0 0.25 0"/>
<feBlend mode="normal" in2="BackgroundImageFix" result="effect1_dropShadow"/>
<feBlend mode="normal" in="SourceGraphic" in2="effect1_dropShadow" result="shape"/>
</filter>
</defs>
</svg>
