<svg width="396" height="140" viewBox="0 0 396 140" fill="none" xmlns="http://www.w3.org/2000/svg">
<g filter="url(#filter0_d)">
<path d="M15.8173 89.8298C7.08163 74.0821 26.5152 50.5001 59.2234 37.1579C91.9315 23.8157 125.528 25.7658 134.264 41.5136C143 57.2613 123.566 80.8433 90.8578 94.1855C58.1497 107.528 24.5529 105.578 15.8173 89.8298Z" fill="white"/>
<path d="M199 58.6792C199 41.4823 158.555 69.4857 142.256 62.5671C116.299 51.5486 77.5 72.8029 77.5 89.9998C81.122 102.48 112 131.334 152.2 120.954C187.6 103.027 199 75.876 199 58.6792Z" fill="white"/>
<path d="M242.843 48.6952C242.843 69.3826 207.325 74.9157 182.068 74.9157C156.812 74.9157 116.481 64.6148 133.93 37.4578C145.364 19.6646 164.634 0 189.891 0C215.147 0 242.843 28.0078 242.843 48.6952Z" fill="white"/>
<path d="M392 45.4C392 60.864 328.912 65 284.05 65C239.188 65 167.55 57.3 198.545 37C218.853 23.6994 253.083 9 297.944 9C342.806 9 392 29.936 392 45.4Z" fill="white"/>
<path d="M275.124 91.6319C275.124 74.5648 239.618 70 214.369 70C189.121 70 148.802 78.4982 166.246 100.903C177.676 115.582 196.94 131.805 222.189 131.805C247.438 131.805 275.124 108.699 275.124 91.6319Z" fill="white"/>
<path d="M367.5 77.5C367.5 98.2107 328.66 115 290 115C251.34 115 220 98.2107 220 77.5C220 56.7893 251.34 49.5 290 49.5C328.66 49.5 367.5 56.7893 367.5 77.5Z" fill="white"/>
<ellipse cx="120.055" cy="36.5215" rx="30.0862" ry="23.4112" fill="white"/>
<path d="M115.223 52.0879L115.823 62.01L108.887 62.8764L108.977 85.1662L99.1642 86.51L97.3464 64.3657L90.4182 65.3254L89.7701 54.2783L115.223 52.0879ZM151.825 82.6399L140.195 84.1838L139.193 73.4017L133.821 73.8541L134.356 84.111L123.893 84.9921L122.015 52.0805L133.175 51.6581L133.887 68.4859L139.071 68.0493L137.6 50.0154L148.273 49.3989L151.825 82.6399ZM178.108 46.5102C178.138 47.9816 178.174 49.4368 178.217 50.8758C178.26 52.3148 178.28 53.7713 178.279 55.2454L168.42 56.5931L168.434 59.5554L175.394 58.9694L175.49 66.2526L168.503 67.0762L168.557 70.5057L174.349 70.0179L178.459 69.6718C178.51 71.3923 178.552 73.1058 178.586 74.8121C178.634 76.5015 178.691 78.198 178.756 79.9017L158.663 82.0641L156.575 48.3235L178.108 46.5102ZM219.951 42.9867C219.98 44.4581 220.017 45.9133 220.059 47.3523C220.102 48.7913 220.123 50.2478 220.122 51.7219L210.262 53.0695L210.277 56.0319L217.236 55.4458L217.332 62.7291L210.345 63.5527L210.399 66.9821L216.191 66.4944L220.302 66.1483C220.352 67.8688 220.395 69.5822 220.429 71.2885C220.477 72.978 220.533 74.6745 220.599 76.3782L200.506 78.5406L198.417 44.7999L219.951 42.9867ZM257.329 40.0272L258.315 71.8379L246.171 73.9895L238.204 57.5846L238.632 74.9537L228.122 75.8387L226.174 42.6507L237.804 41.1069L247.301 57.2419L246.337 41.3291L257.329 40.0272ZM291.747 52.182C291.931 54.3617 291.816 56.3549 291.404 58.1615C290.99 59.9526 290.335 61.5758 289.439 63.0311C288.556 64.4696 287.463 65.7377 286.16 66.8353C284.857 67.9329 283.407 68.8703 281.811 69.6477C280.213 70.4094 278.493 71.0247 276.65 71.4934C274.822 71.9453 272.928 72.2538 270.966 72.419C270.234 72.4806 269.516 72.5254 268.813 72.5532C268.109 72.5655 267.387 72.5636 266.649 72.5473L264.663 41.1501C266.33 40.4609 268.058 39.9313 269.845 39.5612C271.647 39.1743 273.444 38.9054 275.234 38.7546C277.461 38.5671 279.536 38.7295 281.461 39.2416C283.386 39.7538 285.079 40.5834 286.539 41.7305C288 42.8776 289.181 44.3305 290.082 46.0893C290.998 47.8467 291.553 49.8776 291.747 52.182ZM282.298 54.483C282.242 53.6409 282.081 52.8392 281.813 52.0777C281.56 51.3149 281.184 50.6567 280.682 50.1031C280.195 49.5326 279.594 49.0971 278.879 48.7967C278.162 48.4807 277.328 48.3472 276.375 48.396L276.66 62.9547C277.583 62.7359 278.406 62.3608 279.129 61.8295C279.852 61.2825 280.456 60.6436 280.944 59.9126C281.445 59.1648 281.809 58.358 282.034 57.4923C282.273 56.6098 282.37 55.7157 282.325 54.81L282.298 54.483ZM307.122 64.7173C307.18 65.4024 307.101 66.0519 306.886 66.6658C306.671 67.2798 306.357 67.8315 305.944 68.3211C305.544 68.7937 305.06 69.1873 304.491 69.5018C303.92 69.8008 303.3 69.9784 302.631 70.0348C301.945 70.0925 301.297 70.0217 300.684 69.8224C300.07 69.6075 299.519 69.3011 299.031 68.9032C298.557 68.4884 298.162 67.9963 297.848 67.4269C297.549 66.8562 297.371 66.2284 297.313 65.5433C297.257 64.8738 297.327 64.2249 297.525 63.5967C297.739 62.9672 298.045 62.4161 298.445 61.9434C298.858 61.4539 299.35 61.0519 299.919 60.7374C300.488 60.4228 301.116 60.2367 301.801 60.1791C302.47 60.1227 303.112 60.2019 303.726 60.4168C304.34 60.6317 304.884 60.9465 305.358 61.3613C305.846 61.7592 306.248 62.2507 306.564 62.8356C306.88 63.4206 307.066 64.0478 307.122 64.7173ZM322.508 63.4216C322.566 64.1067 322.487 64.7562 322.272 65.3702C322.058 65.9841 321.743 66.5358 321.33 67.0254C320.931 67.4981 320.446 67.8917 319.877 68.2062C319.306 68.5051 318.686 68.6828 318.017 68.7391C317.332 68.7968 316.683 68.726 316.07 68.5267C315.456 68.3119 314.905 68.0055 314.417 67.6075C313.943 67.1927 313.549 66.7006 313.234 66.1313C312.935 65.5606 312.757 64.9327 312.699 64.2476C312.643 63.5781 312.714 62.9293 312.912 62.3011C313.125 61.6716 313.432 61.1205 313.831 60.6478C314.244 60.1582 314.736 59.7562 315.305 59.4417C315.874 59.1272 316.502 58.9411 317.187 58.8834C317.856 58.827 318.498 58.9063 319.112 59.1211C319.726 59.336 320.27 59.6508 320.744 60.0657C321.232 60.4636 321.634 60.955 321.95 61.54C322.266 62.1249 322.452 62.7521 322.508 63.4216ZM337.894 62.126C337.952 62.811 337.873 63.4605 337.659 64.0745C337.444 64.6884 337.13 65.2402 336.716 65.7297C336.317 66.2024 335.833 66.596 335.263 66.9105C334.692 67.2094 334.072 67.3871 333.403 67.4435C332.718 67.5012 332.069 67.4304 331.456 67.2311C330.842 67.0162 330.291 66.7098 329.803 66.3119C329.329 65.8971 328.935 65.405 328.62 64.8356C328.321 64.2649 328.143 63.637 328.085 62.952C328.029 62.2825 328.1 61.6336 328.298 61.0054C328.511 60.3759 328.818 59.8248 329.217 59.3521C329.63 58.8626 330.122 58.4606 330.691 58.146C331.261 57.8315 331.888 57.6454 332.573 57.5877C333.242 57.5314 333.884 57.6106 334.498 57.8255C335.112 58.0403 335.656 58.3552 336.13 58.77C336.618 59.1679 337.02 59.6594 337.336 60.2443C337.652 60.8292 337.838 61.4565 337.894 62.126Z" fill="#16B1F3"/>
</g>
<defs>
<filter id="filter0_d" x="9.7262" y="0" width="386.274" height="139.805" filterUnits="userSpaceOnUse" color-interpolation-filters="sRGB">
<feFlood flood-opacity="0" result="BackgroundImageFix"/>
<feColorMatrix in="SourceAlpha" type="matrix" values="0 0 0 0 0 0 0 0 0 0 0 0 0 0 0 0 0 0 127 0"/>
<feOffset dy="4"/>
<feGaussianBlur stdDeviation="2"/>
<feColorMatrix type="matrix" values="0 0 0 0 0 0 0 0 0 0 0 0 0 0 0 0 0 0 0.25 0"/>
<feBlend mode="normal" in2="BackgroundImageFix" result="effect1_dropShadow"/>
<feBlend mode="normal" in="SourceGraphic" in2="effect1_dropShadow" result="shape"/>
</filter>
</defs>
</svg>
