<svg width="60" height="60" viewBox="0 0 60 60" fill="none" xmlns="http://www.w3.org/2000/svg">
<path fill-rule="evenodd" clip-rule="evenodd" d="M0 30C0 13.4315 13.4315 0 30 0C46.5685 0 60 13.4315 60 30C60 46.5685 46.5685 60 30 60C13.4315 60 0 46.5685 0 30ZM29.9567 22.0267C32.3943 22.0267 34.0386 23.0811 34.9761 23.9622L38.6397 20.38C36.3896 18.2856 33.4616 17 29.9567 17C24.8796 17 20.4948 19.9178 18.3601 24.1644C17.4803 25.9267 16.9755 27.9056 16.9755 30C16.9755 32.0944 17.4803 34.0733 18.3601 35.8356L22.5713 32.5715L18.3746 35.8356C20.5093 40.0822 24.8796 43 29.9567 43C33.4616 43 36.4041 41.8444 38.5532 39.8511C41.0052 37.5833 42.4187 34.2467 42.4187 30.2889C42.4187 29.22 42.3322 28.44 42.1447 27.6311H29.9567V32.4556H37.1108C36.9666 33.6544 36.1877 35.46 34.4569 36.6733C33.3607 37.4389 31.8895 37.9733 29.9567 37.9733C26.5239 37.9733 23.6103 35.7056 22.5718 32.5711C22.2978 31.7622 22.1391 30.8956 22.1391 30C22.1391 29.1044 22.2978 28.2378 22.5574 27.4289C23.6103 24.2944 26.5239 22.0267 29.9567 22.0267Z" fill="white"/>
</svg>
