<svg width="60" height="61" viewBox="0 0 60 61" fill="none" xmlns="http://www.w3.org/2000/svg">
<path fill-rule="evenodd" clip-rule="evenodd" d="M30 0.00585938C13.4315 0.00585938 0 13.4373 0 30.0059C0 46.5744 13.4315 60.0059 30 60.0059C46.5685 60.0059 60 46.5744 60 30.0059C60 13.4373 46.5685 0.00585938 30 0.00585938ZM14.402 24.8532H21.2007V45.2803H14.402V24.8532ZM21.6485 18.5342C21.6043 16.5314 20.1721 15.0059 17.8463 15.0059C15.5205 15.0059 14 16.5314 14 18.5342C14 20.4956 15.4756 22.065 17.758 22.065H17.8015C20.1721 22.065 21.6485 20.4956 21.6485 18.5342ZM37.8914 24.3735C42.3652 24.3735 45.7192 27.2937 45.7192 33.568L45.719 45.2803H38.9206V34.3518C38.9206 31.6068 37.9368 29.7336 35.4756 29.7336C33.5974 29.7336 32.4786 30.9964 31.9872 32.216C31.8075 32.6531 31.7633 33.2621 31.7633 33.8727V45.2809H24.9639C24.9639 45.2809 25.0535 26.7705 24.9639 24.8537H31.7633V27.747C32.6657 26.3562 34.2818 24.3735 37.8914 24.3735Z" fill="white"/>
</svg>
