<svg width="211" height="99" viewBox="0 0 211 99" fill="none" xmlns="http://www.w3.org/2000/svg">
<g filter="url(#filter0_d)">
<path d="M43.8658 31.5C97.8661 43.9999 115.866 47.9998 156.866 27.0002C197.866 6.00058 218.866 58.9999 197.866 76.5C176.866 94.0002 53.8655 88.5 25.8655 84.0001C-2.13455 79.5003 -10.1344 19.0001 43.8658 31.5Z" fill="white"/>
<ellipse cx="67.3658" cy="31.5" rx="33.5" ry="31.5" fill="white"/>
<ellipse cx="116.366" cy="44.5" rx="33.5" ry="31.5" fill="white"/>
<path d="M40.5977 69.7656C40.5977 70.8359 40.4102 71.7734 40.0352 72.5781C39.668 73.375 39.1602 74.0391 38.5117 74.5703C37.8711 75.1016 37.1172 75.5 36.25 75.7656C35.3906 76.0312 34.4648 76.1641 33.4727 76.1641C33.0898 76.1641 32.668 76.1133 32.207 76.0117C31.7539 75.9102 31.293 75.7852 30.8242 75.6367C30.3555 75.4805 29.9023 75.3164 29.4648 75.1445C29.0352 74.9648 28.6523 74.7969 28.3164 74.6406L28.832 69.8125C29.4961 70.2109 30.2305 70.5156 31.0352 70.7266C31.8477 70.9297 32.6445 71.0312 33.4258 71.0312C33.5742 71.0312 33.7539 71.0273 33.9648 71.0195C34.1758 71.0039 34.375 70.9688 34.5625 70.9141C34.7578 70.8516 34.9219 70.7617 35.0547 70.6445C35.1875 70.5273 35.2539 70.3594 35.2539 70.1406C35.2539 69.9922 35.207 69.8672 35.1133 69.7656C35.0195 69.6562 34.8984 69.5703 34.75 69.5078C34.6016 69.4375 34.4336 69.3867 34.2461 69.3555C34.0586 69.3164 33.875 69.2891 33.6953 69.2734C33.5156 69.2578 33.3477 69.25 33.1914 69.25C33.0352 69.25 32.9102 69.25 32.8164 69.25C32.1445 69.25 31.5312 69.1328 30.9766 68.8984C30.4297 68.6641 29.957 68.3398 29.5586 67.9258C29.168 67.5039 28.8633 67.0078 28.6445 66.4375C28.4258 65.8594 28.3164 65.2344 28.3164 64.5625C28.3164 63.6406 28.5 62.8164 28.8672 62.0898C29.2422 61.3555 29.7383 60.7344 30.3555 60.2266C30.9805 59.7109 31.6953 59.3164 32.5 59.043C33.3047 58.7695 34.1367 58.6328 34.9961 58.6328C35.3789 58.6328 35.7734 58.6484 36.1797 58.6797C36.5859 58.7031 36.9883 58.75 37.3867 58.8203C37.793 58.8906 38.1875 58.9805 38.5703 59.0898C38.9531 59.1992 39.3164 59.3359 39.6602 59.5L39.2148 64.2578C38.6836 64.0781 38.125 63.9297 37.5391 63.8125C36.9609 63.6875 36.3945 63.625 35.8398 63.625C35.7383 63.625 35.6055 63.6289 35.4414 63.6367C35.2852 63.6367 35.1172 63.6484 34.9375 63.6719C34.7656 63.6875 34.5898 63.7148 34.4102 63.7539C34.2305 63.793 34.0703 63.8477 33.9297 63.918C33.7891 63.9805 33.6758 64.0664 33.5898 64.1758C33.5039 64.2852 33.4648 64.4141 33.4727 64.5625C33.4805 64.7344 33.543 64.875 33.6602 64.9844C33.7852 65.0859 33.9414 65.168 34.1289 65.2305C34.3242 65.2852 34.5352 65.3242 34.7617 65.3477C34.9961 65.3711 35.2266 65.3867 35.4531 65.3945C35.6797 65.3945 35.8906 65.3945 36.0859 65.3945C36.2812 65.3867 36.4414 65.3906 36.5664 65.4062C37.1914 65.4453 37.7539 65.5781 38.2539 65.8047C38.7539 66.0312 39.1758 66.332 39.5195 66.707C39.8711 67.082 40.1367 67.5312 40.3164 68.0547C40.5039 68.5703 40.5977 69.1406 40.5977 69.7656Z" fill="#16B1F3"/>
<path d="M63.457 62.2188L57.8086 70.0234L62.5664 78.3203L57.1289 79.2812L53.5664 74.2188L53.3789 79.5156L48.5039 79.7031L48.8789 61.75L54.3398 62.0547L53.918 67.3516L57.5508 61.75L63.457 62.2188Z" fill="#16B1F3"/>
<path d="M85.6562 65.1328L79.2109 74.1328L78.9062 81.4688H73.3516L73.4922 74.1797L70.1406 65.4844L76.1172 64.7344L77.0547 69.7969L80.0312 64.7344L85.6562 65.1328Z" fill="#16B1F3"/>
<path d="M105.508 81L99.6484 81.2812L99.6016 75.8672H96.9062L96.7422 81H91.4922L91.9375 64.5234L97.5156 64.7812L97.1641 73.1953H99.7656L99.7891 64.1484L105.133 64.2891L105.508 81Z" fill="#16B1F3"/>
<path d="M129.375 79.9922L123.562 80.7422L122.859 78.0938H120.188L119.602 80.7422L113.625 80.1562L118.289 64.5469L124.805 64.2188L129.375 79.9922ZM122.438 74.5078L121.547 70.4297L120.68 74.5078H122.438Z" fill="#16B1F3"/>
<path d="M147.695 63.1016C147.648 63.8359 147.605 64.5625 147.566 65.2812C147.527 66 147.477 66.7266 147.414 67.4609L142.445 67.7188V69.1953H146.758L146.523 72.8281L142.422 72.9453L142.445 79.8828L136.516 80L136.891 63.1016H147.695Z" fill="#16B1F3"/>
</g>
<defs>
<filter id="filter0_d" x="0" y="0" width="210.124" height="98.5174" filterUnits="userSpaceOnUse" color-interpolation-filters="sRGB">
<feFlood flood-opacity="0" result="BackgroundImageFix"/>
<feColorMatrix in="SourceAlpha" type="matrix" values="0 0 0 0 0 0 0 0 0 0 0 0 0 0 0 0 0 0 127 0"/>
<feOffset dy="6"/>
<feGaussianBlur stdDeviation="2"/>
<feColorMatrix type="matrix" values="0 0 0 0 0 0 0 0 0 0 0 0 0 0 0 0 0 0 0.25 0"/>
<feBlend mode="normal" in2="BackgroundImageFix" result="effect1_dropShadow"/>
<feBlend mode="normal" in="SourceGraphic" in2="effect1_dropShadow" result="shape"/>
</filter>
</defs>
</svg>
