<svg width="203" height="95" viewBox="0 0 203 95" fill="none" xmlns="http://www.w3.org/2000/svg">
<path d="M39.8658 31.5C93.8661 43.9999 111.866 47.9998 152.866 27.0002C193.866 6.00058 214.866 58.9999 193.866 76.5C172.866 94.0002 49.8655 88.5 21.8655 84.0001C-6.13455 79.5003 -14.1344 19.0001 39.8658 31.5Z" fill="white"/>
<ellipse cx="63.3658" cy="31.5" rx="33.5" ry="31.5" fill="white"/>
<ellipse cx="112.366" cy="44.5" rx="33.5" ry="31.5" fill="white"/>
<path d="M36.5977 69.7656C36.5977 70.8359 36.4102 71.7734 36.0352 72.5781C35.668 73.375 35.1602 74.0391 34.5117 74.5703C33.8711 75.1016 33.1172 75.5 32.25 75.7656C31.3906 76.0312 30.4648 76.1641 29.4727 76.1641C29.0898 76.1641 28.668 76.1133 28.207 76.0117C27.7539 75.9102 27.293 75.7852 26.8242 75.6367C26.3555 75.4805 25.9023 75.3164 25.4648 75.1445C25.0352 74.9648 24.6523 74.7969 24.3164 74.6406L24.832 69.8125C25.4961 70.2109 26.2305 70.5156 27.0352 70.7266C27.8477 70.9297 28.6445 71.0312 29.4258 71.0312C29.5742 71.0312 29.7539 71.0273 29.9648 71.0195C30.1758 71.0039 30.375 70.9688 30.5625 70.9141C30.7578 70.8516 30.9219 70.7617 31.0547 70.6445C31.1875 70.5273 31.2539 70.3594 31.2539 70.1406C31.2539 69.9922 31.207 69.8672 31.1133 69.7656C31.0195 69.6562 30.8984 69.5703 30.75 69.5078C30.6016 69.4375 30.4336 69.3867 30.2461 69.3555C30.0586 69.3164 29.875 69.2891 29.6953 69.2734C29.5156 69.2578 29.3477 69.25 29.1914 69.25C29.0352 69.25 28.9102 69.25 28.8164 69.25C28.1445 69.25 27.5312 69.1328 26.9766 68.8984C26.4297 68.6641 25.957 68.3398 25.5586 67.9258C25.168 67.5039 24.8633 67.0078 24.6445 66.4375C24.4258 65.8594 24.3164 65.2344 24.3164 64.5625C24.3164 63.6406 24.5 62.8164 24.8672 62.0898C25.2422 61.3555 25.7383 60.7344 26.3555 60.2266C26.9805 59.7109 27.6953 59.3164 28.5 59.043C29.3047 58.7695 30.1367 58.6328 30.9961 58.6328C31.3789 58.6328 31.7734 58.6484 32.1797 58.6797C32.5859 58.7031 32.9883 58.75 33.3867 58.8203C33.793 58.8906 34.1875 58.9805 34.5703 59.0898C34.9531 59.1992 35.3164 59.3359 35.6602 59.5L35.2148 64.2578C34.6836 64.0781 34.125 63.9297 33.5391 63.8125C32.9609 63.6875 32.3945 63.625 31.8398 63.625C31.7383 63.625 31.6055 63.6289 31.4414 63.6367C31.2852 63.6367 31.1172 63.6484 30.9375 63.6719C30.7656 63.6875 30.5898 63.7148 30.4102 63.7539C30.2305 63.793 30.0703 63.8477 29.9297 63.918C29.7891 63.9805 29.6758 64.0664 29.5898 64.1758C29.5039 64.2852 29.4648 64.4141 29.4727 64.5625C29.4805 64.7344 29.543 64.875 29.6602 64.9844C29.7852 65.0859 29.9414 65.168 30.1289 65.2305C30.3242 65.2852 30.5352 65.3242 30.7617 65.3477C30.9961 65.3711 31.2266 65.3867 31.4531 65.3945C31.6797 65.3945 31.8906 65.3945 32.0859 65.3945C32.2812 65.3867 32.4414 65.3906 32.5664 65.4062C33.1914 65.4453 33.7539 65.5781 34.2539 65.8047C34.7539 66.0312 35.1758 66.332 35.5195 66.707C35.8711 67.082 36.1367 67.5312 36.3164 68.0547C36.5039 68.5703 36.5977 69.1406 36.5977 69.7656Z" fill="#16B1F3"/>
<path d="M59.457 62.2188L53.8086 70.0234L58.5664 78.3203L53.1289 79.2812L49.5664 74.2188L49.3789 79.5156L44.5039 79.7031L44.8789 61.75L50.3398 62.0547L49.918 67.3516L53.5508 61.75L59.457 62.2188Z" fill="#16B1F3"/>
<path d="M81.6562 65.1328L75.2109 74.1328L74.9062 81.4688H69.3516L69.4922 74.1797L66.1406 65.4844L72.1172 64.7344L73.0547 69.7969L76.0312 64.7344L81.6562 65.1328Z" fill="#16B1F3"/>
<path d="M101.508 81L95.6484 81.2812L95.6016 75.8672H92.9062L92.7422 81H87.4922L87.9375 64.5234L93.5156 64.7812L93.1641 73.1953H95.7656L95.7891 64.1484L101.133 64.2891L101.508 81Z" fill="#16B1F3"/>
<path d="M125.375 79.9922L119.562 80.7422L118.859 78.0938H116.188L115.602 80.7422L109.625 80.1562L114.289 64.5469L120.805 64.2188L125.375 79.9922ZM118.438 74.5078L117.547 70.4297L116.68 74.5078H118.438Z" fill="#16B1F3"/>
<path d="M143.695 63.1016C143.648 63.8359 143.605 64.5625 143.566 65.2812C143.527 66 143.477 66.7266 143.414 67.4609L138.445 67.7188V69.1953H142.758L142.523 72.8281L138.422 72.9453L138.445 79.8828L132.516 80L132.891 63.1016H143.695Z" fill="#16B1F3"/>
</svg>
